<svg width="133" height="49" viewBox="0 0 133 49" fill="none" xmlns="http://www.w3.org/2000/svg">
<path d="M85.7761 20.3984C83.6122 20.3984 81.8089 21.4244 80.5466 22.9935V20.7605H78.8635V40.4347H80.5466V33.3737C81.8089 35.0032 83.6122 35.9688 85.7761 35.9688C89.7433 35.9688 92.9893 32.4685 92.9893 28.1836C92.9291 23.8988 89.7433 20.3984 85.7761 20.3984ZM85.7761 34.3394C82.7105 34.3394 80.246 31.6236 80.246 28.244C80.246 24.8644 82.7105 22.1486 85.7761 22.1486C88.8417 22.1486 91.3062 24.8644 91.3062 28.244C91.2461 31.5632 88.7816 34.3394 85.7761 34.3394Z" fill="white"/>
<path d="M66.7819 14.665C61.0715 14.665 56.4431 19.5534 56.4431 25.5281C56.4431 31.5028 61.0715 36.3911 66.7819 36.3911C72.4923 36.3911 77.1208 31.5028 77.1208 25.5281C77.1208 19.5534 72.4923 14.665 66.7819 14.665ZM66.7819 34.7617C61.9732 34.7617 58.0661 30.5975 58.0661 25.5281C58.0661 20.4587 61.9732 16.2945 66.7819 16.2945C71.5907 16.2945 75.4978 20.4587 75.4978 25.5281C75.4978 30.6579 71.5907 34.7617 66.7819 34.7617Z" fill="white"/>
<path d="M116.793 20.459C116.192 20.459 115.651 20.64 115.11 20.9418C114.028 21.5453 113.246 22.3902 112.765 23.5368C112.765 23.5368 112.765 23.5972 112.705 23.5972C112.705 22.6919 112.705 21.7867 112.705 20.8814H111.022C111.022 25.7698 111.022 30.6582 111.022 35.6069C111.563 35.6069 112.164 35.6069 112.705 35.6069C112.705 35.5466 112.705 35.5466 112.705 35.4862C112.705 32.8308 112.705 30.4771 112.705 27.8821C112.705 26.7958 112.886 25.8905 113.246 25.0456C113.547 24.2611 114.028 23.5368 114.689 22.9937C115.47 22.3298 116.372 22.0281 117.394 22.2091C117.574 22.2091 117.694 22.2695 117.875 22.3298C117.995 21.847 118.175 21.2435 118.295 20.7004C117.875 20.5193 117.213 20.459 116.793 20.459Z" fill="white"/>
<path d="M101.705 20.459C97.7381 20.459 94.4922 23.9593 94.4922 28.2442C94.4922 32.529 97.7381 36.0294 101.705 36.0294C104.53 36.0294 106.995 34.2188 108.197 31.6238L106.755 30.7789C105.853 32.8911 103.989 34.3395 101.765 34.3395C98.8802 34.3395 96.5359 31.8652 96.2354 28.7873H107.897H108.918C108.918 28.6063 108.918 28.4252 108.918 28.2442C108.918 23.6575 105.913 20.459 101.705 20.459ZM101.705 22.1488C104.711 22.1488 106.815 24.2007 107.175 27.2786H96.2354C96.6561 24.3818 98.9403 22.1488 101.705 22.1488Z" fill="white"/>
<path d="M130.377 20.7605V22.9935C129.115 21.364 127.312 20.3984 125.148 20.3984C121.181 20.3984 117.935 23.8988 117.935 28.1836C117.935 32.4685 121.181 35.9688 125.148 35.9688C127.312 35.9688 129.115 34.9429 130.377 33.3737V35.6067H132.061V20.7605H130.377ZM125.148 34.3394C122.082 34.3394 119.618 31.6236 119.618 28.244C119.618 24.8644 122.082 22.1486 125.148 22.1486C128.214 22.1486 130.678 24.8644 130.678 28.244C130.678 31.5632 128.214 34.3394 125.148 34.3394Z" fill="white"/>
<path d="M48.3281 24.2608C48.3281 31.4425 45.2025 37.9 40.2735 42.3659C34.0822 45.3834 28.3117 43.2712 26.3882 41.9435C32.4592 40.6158 37.0877 33.1927 37.0877 24.2608C37.0877 15.329 32.4592 7.90591 26.3882 6.5782C28.3117 5.2505 34.0822 3.13824 40.2735 6.15575C45.2025 10.6217 48.3281 17.0792 48.3281 24.2608Z" fill="#FF1B2D"/>
<path d="M16.2296 10.5613C13.5847 13.6995 11.8416 18.4068 11.7214 23.6573V24.804C11.8416 30.0544 13.5847 34.7618 16.2296 37.9C19.7159 42.4262 24.8252 45.2627 30.5957 45.2627C34.1422 45.2627 37.4482 44.1764 40.2734 42.3055C36.0056 46.168 30.3553 48.4613 24.164 48.4613C23.8034 48.4613 23.3826 48.4613 23.0219 48.4613C10.2186 47.9181 0 37.2965 0 24.2608C0 10.8631 10.8197 0 24.164 0C24.2241 0 24.2241 0 24.2842 0C30.4154 0 36.0056 2.35366 40.2734 6.15573C37.4482 4.28487 34.1422 3.19857 30.5957 3.19857C24.8252 3.19857 19.6558 6.09538 16.2296 10.5613Z" fill="#FF1B2D"/>
</svg>
